<?xml version="1.0" encoding="UTF-8" standalone="no"?>
<!DOCTYPE svg PUBLIC "-//W3C//DTD SVG 1.1//EN"
 "http://www.w3.org/Graphics/SVG/1.1/DTD/svg11.dtd">
<!-- Generated by graphviz version 8.1.0 (20230707.0739)
 -->
<!-- Pages: 1 -->
<svg width="1781pt" height="332pt"
 viewBox="0.00 0.00 1780.99 332.00" xmlns="http://www.w3.org/2000/svg" xmlns:xlink="http://www.w3.org/1999/xlink">
<g id="graph0" class="graph" transform="scale(1 1) rotate(0) translate(4 328)">
<polygon fill="white" stroke="none" points="-4,4 -4,-328 1776.99,-328 1776.99,4 -4,4"/>
<!-- [root] local_file.demo (expand) -->
<g id="node1" class="node">
<title>[root] local_file.demo (expand)</title>
<polygon fill="none" stroke="black" points="645.25,-108 543.75,-108 543.75,-72 645.25,-72 645.25,-108"/>
<text text-anchor="middle" x="594.5" y="-84.95" font-family="Times,serif" font-size="14.00">local_file.demo</text>
</g>
<!-- [root] provider[&quot;registry.terraform.io/hashicorp/local&quot;] -->
<g id="node3" class="node">
<title>[root] provider[&quot;registry.terraform.io/hashicorp/local&quot;]</title>
<polygon fill="none" stroke="black" points="269.5,-36 0,-18 269.5,0 538.99,-18 269.5,-36"/>
<text text-anchor="middle" x="269.5" y="-12.95" font-family="Times,serif" font-size="14.00">provider[&quot;registry.terraform.io/hashicorp/local&quot;]</text>
</g>
<!-- [root] local_file.demo (expand)&#45;&gt;[root] provider[&quot;registry.terraform.io/hashicorp/local&quot;] -->
<g id="edge1" class="edge">
<title>[root] local_file.demo (expand)&#45;&gt;[root] provider[&quot;registry.terraform.io/hashicorp/local&quot;]</title>
<path fill="none" stroke="black" d="M543.36,-77.99C489.23,-66.33 403.33,-47.83 342.18,-34.65"/>
<polygon fill="black" stroke="black" points="342.95,-31.03 332.44,-32.34 341.48,-37.87 342.95,-31.03"/>
</g>
<!-- [root] var.content -->
<g id="node6" class="node">
<title>[root] var.content</title>
<polygon fill="none" stroke="black" points="626.5,-36 556.5,-36 556.5,0 632.5,0 632.5,-30 626.5,-36"/>
<polyline fill="none" stroke="black" points="626.5,-36 626.5,-30"/>
<polyline fill="none" stroke="black" points="632.5,-30 626.5,-30"/>
<text text-anchor="middle" x="594.5" y="-12.95" font-family="Times,serif" font-size="14.00">var.content</text>
</g>
<!-- [root] local_file.demo (expand)&#45;&gt;[root] var.content -->
<g id="edge2" class="edge">
<title>[root] local_file.demo (expand)&#45;&gt;[root] var.content</title>
<path fill="none" stroke="black" d="M594.5,-71.7C594.5,-64.24 594.5,-55.32 594.5,-46.97"/>
<polygon fill="black" stroke="black" points="598,-47.1 594.5,-37.1 591,-47.1 598,-47.1"/>
</g>
<!-- [root] var.filename -->
<g id="node7" class="node">
<title>[root] var.filename</title>
<polygon fill="none" stroke="black" points="728.62,-36 650.37,-36 650.37,0 734.62,0 734.62,-30 728.62,-36"/>
<polyline fill="none" stroke="black" points="728.62,-36 728.62,-30"/>
<polyline fill="none" stroke="black" points="734.62,-30 728.62,-30"/>
<text text-anchor="middle" x="692.5" y="-12.95" font-family="Times,serif" font-size="14.00">var.filename</text>
</g>
<!-- [root] local_file.demo (expand)&#45;&gt;[root] var.filename -->
<g id="edge3" class="edge">
<title>[root] local_file.demo (expand)&#45;&gt;[root] var.filename</title>
<path fill="none" stroke="black" d="M618.97,-71.52C631.23,-62.76 646.24,-52.04 659.49,-42.58"/>
<polygon fill="black" stroke="black" points="661.23,-44.92 667.33,-36.26 657.16,-39.22 661.23,-44.92"/>
</g>
<!-- [root] local_file.list (expand) -->
<g id="node2" class="node">
<title>[root] local_file.list (expand)</title>
<polygon fill="none" stroke="black" points="737.12,-180 649.87,-180 649.87,-144 737.12,-144 737.12,-180"/>
<text text-anchor="middle" x="693.5" y="-156.95" font-family="Times,serif" font-size="14.00">local_file.list</text>
</g>
<!-- [root] local_file.list (expand)&#45;&gt;[root] local_file.demo (expand) -->
<g id="edge4" class="edge">
<title>[root] local_file.list (expand)&#45;&gt;[root] local_file.demo (expand)</title>
<path fill="none" stroke="black" d="M668.77,-143.52C656.39,-134.76 641.23,-124.04 627.84,-114.58"/>
<polygon fill="black" stroke="black" points="630.09,-111.18 619.91,-108.26 626.05,-116.89 630.09,-111.18"/>
</g>
<!-- [root] provider[&quot;registry.terraform.io/hashicorp/random&quot;] -->
<g id="node4" class="node">
<title>[root] provider[&quot;registry.terraform.io/hashicorp/random&quot;]</title>
<polygon fill="none" stroke="black" points="1322.5,-108 1037.8,-90 1322.5,-72 1607.19,-90 1322.5,-108"/>
<text text-anchor="middle" x="1322.5" y="-84.95" font-family="Times,serif" font-size="14.00">provider[&quot;registry.terraform.io/hashicorp/random&quot;]</text>
</g>
<!-- [root] random_integer.random (expand) -->
<g id="node5" class="node">
<title>[root] random_integer.random (expand)</title>
<polygon fill="none" stroke="black" points="1396.12,-180 1248.87,-180 1248.87,-144 1396.12,-144 1396.12,-180"/>
<text text-anchor="middle" x="1322.5" y="-156.95" font-family="Times,serif" font-size="14.00">random_integer.random</text>
</g>
<!-- [root] random_integer.random (expand)&#45;&gt;[root] provider[&quot;registry.terraform.io/hashicorp/random&quot;] -->
<g id="edge9" class="edge">
<title>[root] random_integer.random (expand)&#45;&gt;[root] provider[&quot;registry.terraform.io/hashicorp/random&quot;]</title>
<path fill="none" stroke="black" d="M1322.5,-143.7C1322.5,-136.24 1322.5,-127.32 1322.5,-118.97"/>
<polygon fill="black" stroke="black" points="1326,-119.1 1322.5,-109.1 1319,-119.1 1326,-119.1"/>
</g>
<!-- [root] output.md5 (expand) -->
<g id="node8" class="node">
<title>[root] output.md5 (expand)</title>
<ellipse fill="none" stroke="black" cx="495.5" cy="-162" rx="112.77" ry="18"/>
<text text-anchor="middle" x="495.5" y="-156.95" font-family="Times,serif" font-size="14.00">[root] output.md5 (expand)</text>
</g>
<!-- [root] output.md5 (expand)&#45;&gt;[root] local_file.demo (expand) -->
<g id="edge5" class="edge">
<title>[root] output.md5 (expand)&#45;&gt;[root] local_file.demo (expand)</title>
<path fill="none" stroke="black" d="M519.46,-144.05C532.04,-135.16 547.65,-124.12 561.37,-114.42"/>
<polygon fill="black" stroke="black" points="562.92,-116.91 569.06,-108.28 558.88,-111.19 562.92,-116.91"/>
</g>
<!-- [root] output.random (expand) -->
<g id="node9" class="node">
<title>[root] output.random (expand)</title>
<ellipse fill="none" stroke="black" cx="1125.5" cy="-234" rx="124.54" ry="18"/>
<text text-anchor="middle" x="1125.5" y="-228.95" font-family="Times,serif" font-size="14.00">[root] output.random (expand)</text>
</g>
<!-- [root] output.random (expand)&#45;&gt;[root] random_integer.random (expand) -->
<g id="edge6" class="edge">
<title>[root] output.random (expand)&#45;&gt;[root] random_integer.random (expand)</title>
<path fill="none" stroke="black" d="M1170.69,-216.94C1198.13,-207.19 1233.46,-194.64 1263.13,-184.09"/>
<polygon fill="black" stroke="black" points="1264.12,-187.1 1272.37,-180.46 1261.78,-180.51 1264.12,-187.1"/>
</g>
<!-- [root] provider[&quot;registry.terraform.io/hashicorp/local&quot;] (close) -->
<g id="node10" class="node">
<title>[root] provider[&quot;registry.terraform.io/hashicorp/local&quot;] (close)</title>
<ellipse fill="none" stroke="black" cx="741.5" cy="-234" rx="241.74" ry="18"/>
<text text-anchor="middle" x="741.5" y="-228.95" font-family="Times,serif" font-size="14.00">[root] provider[&quot;registry.terraform.io/hashicorp/local&quot;] (close)</text>
</g>
<!-- [root] provider[&quot;registry.terraform.io/hashicorp/local&quot;] (close)&#45;&gt;[root] local_file.list (expand) -->
<g id="edge7" class="edge">
<title>[root] provider[&quot;registry.terraform.io/hashicorp/local&quot;] (close)&#45;&gt;[root] local_file.list (expand)</title>
<path fill="none" stroke="black" d="M729.63,-215.7C724.11,-207.64 717.42,-197.89 711.31,-188.98"/>
<polygon fill="black" stroke="black" points="713.77,-187.37 705.23,-181.1 707.99,-191.33 713.77,-187.37"/>
</g>
<!-- [root] provider[&quot;registry.terraform.io/hashicorp/random&quot;] (close) -->
<g id="node11" class="node">
<title>[root] provider[&quot;registry.terraform.io/hashicorp/random&quot;] (close)</title>
<ellipse fill="none" stroke="black" cx="1520.5" cy="-234" rx="252.49" ry="18"/>
<text text-anchor="middle" x="1520.5" y="-228.95" font-family="Times,serif" font-size="14.00">[root] provider[&quot;registry.terraform.io/hashicorp/random&quot;] (close)</text>
</g>
<!-- [root] provider[&quot;registry.terraform.io/hashicorp/random&quot;] (close)&#45;&gt;[root] random_integer.random (expand) -->
<g id="edge8" class="edge">
<title>[root] provider[&quot;registry.terraform.io/hashicorp/random&quot;] (close)&#45;&gt;[root] random_integer.random (expand)</title>
<path fill="none" stroke="black" d="M1472.06,-215.88C1444.94,-206.29 1410.89,-194.25 1382.14,-184.09"/>
<polygon fill="black" stroke="black" points="1383.4,-180.47 1372.81,-180.43 1381.07,-187.07 1383.4,-180.47"/>
</g>
<!-- [root] root -->
<g id="node12" class="node">
<title>[root] root</title>
<ellipse fill="none" stroke="black" cx="933.5" cy="-306" rx="49.3" ry="18"/>
<text text-anchor="middle" x="933.5" y="-300.95" font-family="Times,serif" font-size="14.00">[root] root</text>
</g>
<!-- [root] root&#45;&gt;[root] output.md5 (expand) -->
<g id="edge10" class="edge">
<title>[root] root&#45;&gt;[root] output.md5 (expand)</title>
<path fill="none" stroke="black" d="M884.52,-302.74C774.69,-297.18 516.33,-281.11 490.5,-252 476,-235.67 479,-210.3 484.62,-190.82"/>
<polygon fill="black" stroke="black" points="488.24,-192.02 488.01,-181.43 481.58,-189.85 488.24,-192.02"/>
</g>
<!-- [root] root&#45;&gt;[root] output.random (expand) -->
<g id="edge11" class="edge">
<title>[root] root&#45;&gt;[root] output.random (expand)</title>
<path fill="none" stroke="black" d="M967.38,-292.65C996.06,-282.19 1037.71,-267 1071.07,-254.84"/>
<polygon fill="black" stroke="black" points="1071.93,-257.89 1080.13,-251.18 1069.53,-251.31 1071.93,-257.89"/>
</g>
<!-- [root] root&#45;&gt;[root] provider[&quot;registry.terraform.io/hashicorp/local&quot;] (close) -->
<g id="edge12" class="edge">
<title>[root] root&#45;&gt;[root] provider[&quot;registry.terraform.io/hashicorp/local&quot;] (close)</title>
<path fill="none" stroke="black" d="M899.61,-292.65C871.61,-282.44 831.26,-267.73 798.32,-255.72"/>
<polygon fill="black" stroke="black" points="799.96,-252.22 789.36,-252.09 797.56,-258.8 799.96,-252.22"/>
</g>
<!-- [root] root&#45;&gt;[root] provider[&quot;registry.terraform.io/hashicorp/random&quot;] (close) -->
<g id="edge13" class="edge">
<title>[root] root&#45;&gt;[root] provider[&quot;registry.terraform.io/hashicorp/random&quot;] (close)</title>
<path fill="none" stroke="black" d="M980.05,-299.45C1066.3,-289.16 1253.95,-266.79 1383.73,-251.31"/>
<polygon fill="black" stroke="black" points="1384.02,-254.68 1393.54,-250.02 1383.19,-247.73 1384.02,-254.68"/>
</g>
</g>
</svg>
